HIERARCHY
ROOT Hips
{
	OFFSET 0.000000 0.000000 0.000000
	CHANNELS 6 Xposition Yposition Zposition Xrotation Yrotation Zrotation
	JOINT LeftUpLeg_virtual
	{
		OFFSET 0.000000 0.000000 0.000000
		CHANNELS 3 Xrotation Yrotation Zrotation
		JOINT LeftUpLeg
		{
			OFFSET 11.394100 -6.187798 -0.413800
			CHANNELS 3 Xrotation Yrotation Zrotation
			JOINT LeftLeg
			{
				OFFSET 0.430247 -32.302673 3.732800
				CHANNELS 3 Xrotation Yrotation Zrotation
				JOINT LeftFoot
				{
					OFFSET -0.430247 -48.264931 -6.423300
					CHANNELS 3 Xrotation Yrotation Zrotation
					JOINT LeftToeBase
					{
						OFFSET 4.230900 -16.068199 23.438400
						CHANNELS 3 Xrotation Yrotation Zrotation
						JOINT LeftToe_End
						{
							OFFSET 4.510700 0.695400 19.974600
							CHANNELS 3 Xrotation Yrotation Zrotation
							End Site
							{
								OFFSET 0 0 0
							}
						}
					}
				}
			}
		}
	}
	JOINT RightUpLeg_virtual
	{
		OFFSET 0.000000 0.000000 0.000000
		CHANNELS 3 Xrotation Yrotation Zrotation
		JOINT RightUpLeg
		{
			OFFSET -11.333700 -6.187798 -0.413800
			CHANNELS 3 Xrotation Yrotation Zrotation
			JOINT RightLeg
			{
				OFFSET -0.430392 -32.302628 3.733000
				CHANNELS 3 Xrotation Yrotation Zrotation
				JOINT RightFoot
				{
					OFFSET 0.430392 -48.264973 -6.423500
					CHANNELS 3 Xrotation Yrotation Zrotation
					JOINT RightToeBase
					{
						OFFSET -4.230900 -16.068199 23.438400
						CHANNELS 3 Xrotation Yrotation Zrotation
						JOINT RightToe_End
						{
							OFFSET -4.510700 0.695400 19.974600
							CHANNELS 3 Xrotation Yrotation Zrotation
							End Site
							{
								OFFSET 0 0 0
							}
						}
					}
				}
			}
		}
	}
	JOINT Spine_virtual
	{
		OFFSET 0.000000 0.000000 0.000000
		CHANNELS 3 Xrotation Yrotation Zrotation
		JOINT Spine
		{
			OFFSET -0.002400 12.777504 0.315300
			CHANNELS 3 Xrotation Yrotation Zrotation
			JOINT Spine1
			{
				OFFSET -0.002067 5.816869 0.032633
				CHANNELS 3 Xrotation Yrotation Zrotation
				JOINT Spine1_split
				{
					OFFSET -0.002067 5.816869 0.032633
					CHANNELS 3 Xrotation Yrotation Zrotation
					JOINT Spine2
					{
						OFFSET -0.002067 5.816869 0.032633
						CHANNELS 3 Xrotation Yrotation Zrotation
						JOINT Neck_virtual
						{
							OFFSET 0.000000 0.000000 0.000000
							CHANNELS 3 Xrotation Yrotation Zrotation
							JOINT Neck
							{
								OFFSET -0.003700 21.199493 -0.826900
								CHANNELS 3 Xrotation Yrotation Zrotation
								JOINT Head
								{
									OFFSET 0.000000 20.442200 4.834800
									CHANNELS 3 Xrotation Yrotation Zrotation
									JOINT HeadTop_End
									{
										OFFSET 0.000000 34.668396 4.968400
										CHANNELS 3 Xrotation Yrotation Zrotation
										End Site
										{
											OFFSET 0 0 0
										}
									}
								}
							}
						}
						JOINT LeftShoulder_virtual
						{
							OFFSET 0.000000 0.000000 0.000000
							CHANNELS 3 Xrotation Yrotation Zrotation
							JOINT LeftShoulder
							{
								OFFSET 3.288150 8.794197 -1.372250
								CHANNELS 3 Xrotation Yrotation Zrotation
								JOINT LeftShoulder_split
								{
									OFFSET 3.288150 8.794197 -1.372250
									CHANNELS 3 Xrotation Yrotation Zrotation
									JOINT LeftArm
									{
										OFFSET 11.953299 -2.279007 -0.146200
										CHANNELS 3 Xrotation Yrotation Zrotation
										JOINT LeftForeArm
										{
											OFFSET 18.448900 0.000000 0.000000
											CHANNELS 3 Xrotation Yrotation Zrotation
											JOINT LeftHand
											{
												OFFSET 29.527798 0.000000 0.000000
												CHANNELS 3 Xrotation Yrotation Zrotation
												End Site
												{
													OFFSET 0 0 0
												}
											}
										}
									}
								}
							}
						}
						JOINT RightShoulder_virtual
						{
							OFFSET 0.000000 0.000000 0.000000
							CHANNELS 3 Xrotation Yrotation Zrotation
							JOINT RightShoulder
							{
								OFFSET -3.249400 8.794197 -1.372250
								CHANNELS 3 Xrotation Yrotation Zrotation
								JOINT RightShoulder_split
								{
									OFFSET -3.249400 8.794197 -1.372250
									CHANNELS 3 Xrotation Yrotation Zrotation
									JOINT RightArm
									{
										OFFSET -11.953299 -2.279007 -0.146200
										CHANNELS 3 Xrotation Yrotation Zrotation
										JOINT RightForeArm
										{
											OFFSET -18.448900 0.000000 0.000000
											CHANNELS 3 Xrotation Yrotation Zrotation
											JOINT RightHand
											{
												OFFSET -29.527802 0.000000 0.000000
												CHANNELS 3 Xrotation Yrotation Zrotation
												End Site
												{
													OFFSET 0 0 0
												}
											}
										}
									}
								}
							}
						}
					}
				}
			}
		}
	}
}
MOTION
Frames: 6
Frame Time: 0.03333333
-1.981761 84.910698 -0.360119 0.000000 0.000000 0.000000 -8.241743 -62.864979 -4.090796 -29.004733 5.749529 26.160480 39.896713 -5.904871 -3.083679 -8.233409 -5.826337 -8.874805 -3.778637 -0.275994 -0.322711 0.000000 0.000000 0.000000 -10.353599 -58.679815 -3.922178 -28.566033 -14.256744 -22.889868 42.442283 3.419708 -7.799647 -14.285997 5.381035 18.390641 -11.129456 1.513239 -0.852586 0.000000 0.000000 0.000000 -8.439941 -61.520661 -3.720593 9.642099 -1.659701 -0.535658 5.148133 -0.279915 -5.025984 1.694412 -10.100018 2.066477 0.000000 0.000000 0.000000 6.769726 0.241775 -4.324968 8.744928 21.409199 10.474350 12.785783 28.413635 -18.221305 0.000000 0.000000 0.000000 5.295427 -0.218108 -3.707973 -9.616672 -7.706017 -6.823648 1.050521 -3.278542 -2.078776 -18.567246 23.750231 -24.803369 11.971226 -44.410829 3.879539 0.000000 0.000000 0.000000 3.137360 -1.049084 -4.084109 -9.888478 2.386227 7.653151 -4.379591 1.150451 3.125331 -45.129273 -17.171043 42.513215 175.962339 65.486406 -161.050014 0.000000 0.000000 0.000000 
-2.489363 85.724655 0.806755 0.000000 0.000000 0.000000 -9.082360 -62.194412 -4.642600 -28.057575 6.504199 25.497801 39.149627 -5.951099 -2.709617 -7.864324 -5.902067 -8.335012 -3.790921 -0.292028 0.073460 0.000000 0.000000 0.000000 -11.203228 -58.355634 -4.566929 -27.167783 -14.129928 -23.013030 41.626202 3.368599 -7.683602 -13.379151 5.370822 21.417643 -13.894101 1.692641 -1.856622 0.000000 0.000000 0.000000 -10.240533 -60.992059 -4.862378 9.001549 -2.037779 0.015844 4.766459 -0.450341 -4.451332 0.357123 -9.095468 1.657607 0.000000 0.000000 0.000000 5.786554 0.060097 -3.822072 9.952310 20.871875 10.606366 12.688734 27.639682 -17.184066 0.000000 0.000000 0.000000 4.760139 -0.401438 -3.415418 -9.449677 -7.859740 -8.089435 1.599547 -2.739652 -3.327096 -18.584742 22.260300 -27.129617 14.165931 -47.680840 5.885856 0.000000 0.000000 0.000000 3.015291 -1.111555 -3.652989 -10.056689 1.352713 9.138444 -3.723008 0.435782 1.873407 -41.325021 -15.890812 38.849771 173.224471 66.653193 -157.754543 0.000000 0.000000 0.000000 
-3.276761 87.350639 2.047649 0.000000 0.000000 0.000000 -10.289674 -59.816010 -5.418734 -25.775676 7.190124 23.277894 36.637797 -5.565887 -1.635968 -7.230539 -5.331129 -8.463260 -3.754028 -0.132779 0.250943 0.000000 0.000000 0.000000 -11.936278 -56.371300 -5.230021 -23.008833 -15.333508 -23.023337 38.644766 2.330417 -7.301088 -13.126279 4.771044 23.164406 -12.751955 2.098844 -3.058537 0.000000 0.000000 0.000000 -11.520395 -59.120970 -5.796553 7.729160 -2.553638 0.930774 3.831267 -0.735562 -2.967561 -0.299376 -6.906149 1.188109 0.000000 0.000000 0.000000 4.061690 -0.252313 -2.313685 10.374478 19.413935 11.335455 13.843323 24.805789 -16.334117 0.000000 0.000000 0.000000 3.557859 -0.587928 -2.052344 -9.372356 -7.263962 -10.027087 1.313175 -1.570233 -4.476497 -16.266842 19.544158 -30.559499 18.636540 -53.189968 9.614161 0.000000 0.000000 0.000000 2.151698 -1.309789 -2.294200 -9.700786 0.074882 11.161172 -3.466586 1.466568 0.852854 -37.347853 -19.662901 29.319810 -175.207179 61.069186 -167.956770 0.000000 0.000000 0.000000 
-4.152039 89.301544 3.291637 0.000000 0.000000 0.000000 -11.784195 -56.621558 -6.330253 -22.502333 7.457156 19.829296 33.103376 -4.863243 -0.044563 -6.597158 -4.140176 -9.129180 -3.798349 0.205299 0.008793 0.000000 0.000000 0.000000 -12.416901 -53.062333 -5.648622 -17.091526 -17.574341 -22.913722 34.739995 0.247007 -6.721081 -12.563719 3.555964 23.452141 -9.692139 2.572282 -3.793968 0.000000 0.000000 0.000000 -12.360037 -55.977375 -6.513400 6.279249 -3.046496 1.940384 2.547248 -0.949361 -0.938818 -0.176129 -4.629960 0.835934 0.000000 0.000000 0.000000 1.919308 -0.538214 -0.198232 9.381387 17.405520 12.762471 15.727264 20.662847 -15.836074 0.000000 0.000000 0.000000 1.860419 -0.680238 0.026297 -9.395602 -6.057273 -12.030774 0.686344 0.007920 -4.918034 -12.082650 16.381251 -33.540959 25.869772 -59.430507 15.671277 0.000000 0.000000 0.000000 0.684235 -1.545080 -0.370332 -8.902364 -1.100516 13.367701 -3.106659 3.756047 0.487252 -35.076358 -28.527941 16.842353 -162.625493 50.321350 -178.674798 0.000000 0.000000 0.000000 
-5.099299 91.186951 4.907646 0.000000 0.000000 0.000000 -13.351429 -52.954573 -7.095695 -18.964744 7.004905 15.643836 29.653519 -4.155494 1.872717 -5.992812 -2.616612 -10.130463 -4.114798 0.719604 -0.678443 0.000000 0.000000 0.000000 -12.804230 -48.971572 -5.838400 -10.566947 -20.116767 -22.617627 30.977517 -2.206832 -6.163721 -10.887433 1.957631 23.285600 -8.865036 2.829371 -3.142129 0.000000 0.000000 0.000000 -12.991978 -51.895876 -6.989897 5.009928 -3.317626 2.792887 1.109855 -1.026330 1.237957 -0.143341 -2.866424 0.579322 0.000000 0.000000 0.000000 -0.254208 -0.701647 2.009274 6.394435 15.084736 14.723291 17.545451 16.219167 -15.841931 0.000000 0.000000 0.000000 -0.046019 -0.640259 2.326824 -9.495774 -4.663041 -13.553304 0.399798 1.035742 -5.064528 -7.200439 13.429538 -34.971282 35.618193 -64.526464 24.089201 0.000000 0.000000 0.000000 -1.173725 -1.665265 1.717050 -7.982932 -2.024764 15.603144 -2.173348 7.343197 0.480362 -37.978478 -39.822359 3.216097 -153.319592 39.117112 174.094596 0.000000 0.000000 0.000000 
-5.815510 92.704010 6.591015 0.000000 0.000000 0.000000 -14.848420 -49.229913 -7.559674 -16.053480 5.557751 11.414680 27.504029 -3.726979 3.855499 -5.370832 -1.218092 -11.160229 -4.733506 1.338284 -1.610498 0.000000 0.000000 0.000000 -13.465942 -44.807035 -5.948127 -4.326449 -22.115961 -22.116716 27.957528 -4.387142 -5.917044 -7.937651 0.366817 23.392302 -11.791391 2.481852 -0.428613 0.000000 0.000000 0.000000 -13.627519 -47.292438 -7.224184 4.147586 -3.280952 3.309280 -0.304916 -0.912981 3.105551 -0.437020 -2.242253 0.442580 0.000000 0.000000 0.000000 -2.034358 -0.629966 3.889894 1.236313 12.713058 16.770305 18.650366 12.637937 -16.759524 0.000000 0.000000 0.000000 -1.778415 -0.488967 4.369516 -9.680213 -3.639818 -14.375204 0.759749 1.835358 -4.822305 -3.043067 11.354204 -34.500853 44.642554 -66.453103 31.686938 0.000000 0.000000 0.000000 -3.106121 -1.603035 3.618592 -7.185861 -2.540215 17.758697 -2.292665 9.935789 1.361458 -46.956738 -50.253656 -9.993346 -145.197896 31.751815 167.866953 0.000000 0.000000 0.000000 
